<svg id="Layer_1" data-name="Layer 1" xmlns="http://www.w3.org/2000/svg" viewBox="0 0 467 467"><defs><style>.cls-1,.cls-2{fill:#333;}.cls-2{stroke:#fff;stroke-width:24px;}.cls-3{fill:#fff;}</style></defs><title>exoplanet</title><rect class="cls-1" width="467" height="467" rx="233.5" ry="233.5"/><path class="cls-2" d="M442,355.5a164.5,164.5,0,1,1,48.18,116.32A164,164,0,0,1,442,355.5Z" transform="translate(-373 -122)"/><path class="cls-1" d="M434,434.5A54.5,54.5,0,1,1,450,473,54.33,54.33,0,0,1,434,434.5Z" transform="translate(-373 -122)"/><path class="cls-3" d="M488.5,501a66.5,66.5,0,1,1,47-19.48A66.06,66.06,0,0,1,488.5,501Zm0-109a42.5,42.5,0,1,0,30.05,12.45A42.22,42.22,0,0,0,488.5,392Z" transform="translate(-373 -122)"/></svg>